<svg xmlns="http://www.w3.org/2000/svg" width="916" height="1145" viewBox="0 0 916 1145">
<g>
<path d="M 358.00 659.18 C358.00,658.67 358.70,656.28 359.55,653.88 C360.40,651.47 360.89,648.71 360.64,647.75 C360.37,646.70 360.75,646.00 361.59,646.00 C363.38,646.00 363.36,646.96 361.43,653.58 C360.04,658.36 358.00,661.70 358.00,659.18 ZM 643.00 657.44 C643.00,656.58 643.45,656.16 644.00,656.50 C644.55,656.84 645.00,657.54 645.00,658.06 C645.00,658.58 644.55,659.00 644.00,659.00 C643.45,659.00 643.00,658.30 643.00,657.44 ZM 716.00 657.50 C716.00,656.67 716.18,656.00 716.39,656.00 C716.61,656.00 717.05,656.67 717.36,657.50 C717.68,658.33 717.50,659.00 716.97,659.00 C716.44,659.00 716.00,658.33 716.00,657.50 ZM 534.01 657.81 C534.02,657.64 534.65,655.42 535.43,652.87 C536.20,650.32 536.47,647.84 536.03,647.37 C535.59,646.89 536.28,645.41 537.56,644.07 L 539.90 641.65 L 539.59 644.07 C539.41,645.41 538.76,647.76 538.14,649.29 C537.52,650.83 536.74,653.20 536.40,654.55 C535.91,656.50 533.96,659.15 534.01,657.81 ZM 650.00 657.07 C650.00,656.56 649.03,656.00 647.85,655.82 C646.19,655.57 645.62,654.67 645.34,651.88 C644.88,647.37 646.75,645.57 650.93,646.49 C653.87,647.13 653.91,647.21 652.36,649.57 C650.47,652.46 648.46,652.87 649.97,650.06 C651.35,647.48 649.18,646.04 647.45,648.39 C645.74,650.74 646.80,653.97 649.64,655.05 C651.98,655.94 652.93,658.00 651.00,658.00 C650.45,658.00 650.00,657.58 650.00,657.07 ZM 722.00 657.01 C721.17,656.54 719.64,655.87 718.58,655.54 C717.14,655.09 716.95,654.65 717.81,653.79 C718.60,653.00 718.64,652.27 717.92,651.40 C716.84,650.10 718.65,646.00 720.30,646.00 C720.75,646.00 720.79,646.53 720.39,647.18 C719.99,647.83 719.58,649.64 719.49,651.20 C719.36,653.42 719.83,654.17 721.66,654.63 C722.95,654.95 724.00,655.84 724.00,656.61 C724.00,658.19 724.02,658.19 722.00,657.01 ZM 376.37 653.12 C376.72,651.27 377.00,648.91 377.00,647.88 C377.00,646.84 377.51,646.00 378.13,646.00 C379.53,646.00 378.42,654.02 376.82,655.50 C376.05,656.21 375.92,655.52 376.37,653.12 ZM 420.20 654.80 C419.54,654.14 419.00,653.08 419.00,652.43 C419.00,650.34 423.10,646.00 425.07,646.00 C427.53,646.00 427.68,649.53 425.25,650.45 C423.85,650.99 423.75,650.87 424.75,649.86 C426.44,648.16 426.33,647.00 424.48,647.00 C422.11,647.00 420.34,651.71 421.81,654.07 C423.14,656.20 422.08,656.68 420.20,654.80 ZM 435.20 654.80 C434.54,654.14 434.00,652.87 434.00,651.97 C434.00,649.64 438.59,645.63 440.45,646.34 C442.38,647.08 442.43,648.40 440.58,649.93 C439.41,650.90 439.25,650.75 439.70,649.06 C440.47,646.09 438.19,646.50 436.78,649.57 C435.88,651.55 435.89,652.59 436.81,654.07 C438.14,656.20 437.08,656.68 435.20,654.80 ZM 547.20 654.80 C546.54,654.14 546.00,653.08 546.00,652.43 C546.00,650.34 550.10,646.00 552.07,646.00 C554.53,646.00 554.68,649.53 552.25,650.45 C550.85,650.99 550.75,650.87 551.75,649.86 C553.25,648.35 553.37,647.00 552.02,647.00 C551.49,647.00 550.28,648.17 549.34,649.60 C547.97,651.69 547.87,652.57 548.83,654.10 C550.15,656.21 549.07,656.67 547.20,654.80 ZM 586.09 654.16 C584.66,651.50 588.66,646.02 591.84,646.27 C593.99,646.44 594.13,646.77 593.55,650.44 C592.80,655.10 592.35,655.75 590.90,654.30 C590.14,653.54 590.14,653.03 590.91,652.55 C592.21,651.75 592.39,647.00 591.12,647.00 C589.45,647.00 587.67,650.12 587.67,653.05 C587.67,656.49 587.42,656.66 586.09,654.16 ZM 617.48 653.00 C617.89,651.08 618.20,648.71 618.17,647.75 C618.15,646.79 618.60,646.00 619.19,646.00 C620.53,646.00 619.36,654.07 617.82,655.50 C617.05,656.21 616.95,655.49 617.48,653.00 ZM 671.64 655.31 C669.36,653.03 672.71,647.28 677.25,645.68 C678.21,645.34 679.00,644.15 679.00,643.03 C679.00,641.91 679.50,641.00 680.12,641.00 C680.80,641.00 680.98,641.88 680.59,643.25 C680.24,644.49 679.44,647.64 678.80,650.25 C677.41,656.01 675.72,656.59 676.62,651.00 C677.38,646.22 675.77,645.61 673.58,649.85 C672.56,651.82 672.42,653.02 673.14,653.74 C673.78,654.38 673.81,655.00 673.23,655.36 C672.71,655.68 671.99,655.66 671.64,655.31 ZM 701.80 655.45 C700.90,654.04 702.04,646.00 703.13,646.00 C704.10,646.00 704.09,648.98 703.11,653.50 C702.75,655.15 702.16,656.03 701.80,655.45 ZM 365.83 651.81 C367.10,649.48 367.20,648.64 366.25,648.29 C364.56,647.67 364.66,646.00 366.39,646.00 C369.55,646.00 368.92,653.05 365.66,654.30 C364.40,654.78 364.43,654.39 365.83,651.81 ZM 387.75 654.42 C386.30,652.96 387.03,650.32 389.54,647.96 C391.55,646.08 392.45,645.79 393.79,646.64 C396.28,648.19 396.39,651.33 394.04,653.46 C392.92,654.48 392.00,654.82 392.00,654.21 C392.00,653.61 392.45,652.84 393.00,652.50 C394.36,651.66 394.27,648.28 392.87,647.42 C391.62,646.64 389.77,649.23 389.00,652.84 C388.73,654.13 388.16,654.84 387.75,654.42 ZM 403.63 652.75 C404.05,651.51 404.36,649.49 404.30,648.25 C404.21,645.92 405.41,645.24 406.50,647.01 C407.27,648.25 404.93,655.00 403.73,655.00 C403.26,655.00 403.21,653.99 403.63,652.75 ZM 408.63 652.75 C409.05,651.51 409.36,649.49 409.30,648.25 C409.25,647.01 409.61,646.00 410.11,646.00 C411.16,646.00 411.23,647.59 410.38,651.88 C410.03,653.59 409.33,655.00 408.81,655.00 C408.27,655.00 408.19,654.03 408.63,652.75 ZM 449.35 653.00 C449.69,651.62 449.98,649.49 449.99,648.25 C449.99,647.01 450.51,646.00 451.13,646.00 C452.57,646.00 451.56,652.88 449.90,654.41 C449.02,655.23 448.88,654.88 449.35,653.00 ZM 474.53 650.75 C475.27,646.25 475.67,645.34 476.53,646.20 C477.40,647.07 475.83,655.00 474.78,655.00 C474.21,655.00 474.11,653.29 474.53,650.75 ZM 485.57 652.50 C485.96,650.85 486.24,648.71 486.20,647.75 C486.16,646.79 486.55,646.00 487.06,646.00 C488.59,646.00 488.13,651.45 486.43,653.56 C484.94,655.40 484.90,655.35 485.57,652.50 ZM 490.63 650.75 C491.33,646.14 491.68,645.35 492.60,646.27 C493.49,647.16 491.97,655.00 490.90,655.00 C490.38,655.00 490.26,653.15 490.63,650.75 ZM 512.27 653.75 C512.53,653.06 513.32,649.91 514.03,646.75 C514.74,643.59 515.74,641.00 516.27,641.00 C516.79,641.00 517.00,641.56 516.73,642.25 C516.47,642.94 515.68,646.09 514.97,649.25 C514.26,652.41 513.26,655.00 512.73,655.00 C512.21,655.00 512.00,654.44 512.27,653.75 ZM 524.30 650.51 C524.43,647.54 524.95,646.01 525.83,646.01 C526.81,646.00 526.97,646.85 526.43,649.25 C526.03,651.04 525.69,653.06 525.68,653.75 C525.67,654.44 525.31,655.00 524.88,655.00 C524.45,655.00 524.18,652.98 524.30,650.51 ZM 574.79 651.98 C573.85,650.32 573.33,648.30 573.64,647.48 C574.31,645.75 577.57,645.50 578.57,647.11 C579.03,647.85 578.56,647.99 577.13,647.54 C574.79,646.80 574.15,648.75 576.09,650.69 C576.70,651.30 577.03,652.51 576.84,653.39 C576.60,654.54 576.02,654.15 574.79,651.98 ZM 604.00 652.93 C604.00,651.80 603.51,649.96 602.92,648.85 C601.76,646.68 602.47,645.02 603.90,646.57 C605.29,648.08 606.23,655.00 605.05,655.00 C604.47,655.00 604.00,654.07 604.00,652.93 ZM 628.63 652.75 C629.05,651.51 629.36,649.49 629.30,648.25 C629.25,646.95 629.80,646.00 630.60,646.00 C631.38,646.00 631.84,646.76 631.65,647.75 C630.79,652.21 629.70,655.00 628.82,655.00 C628.27,655.00 628.19,654.05 628.63,652.75 ZM 633.63 652.75 C634.05,651.51 634.36,649.49 634.30,648.25 C634.22,646.10 635.04,645.37 636.21,646.55 C637.05,647.39 634.89,655.00 633.81,655.00 C633.27,655.00 633.19,654.04 633.63,652.75 ZM 687.65 653.00 C688.06,651.62 688.35,649.47 688.30,648.20 C688.25,646.94 688.64,646.05 689.18,646.23 C689.71,646.40 690.12,646.88 690.08,647.28 C690.03,647.67 690.00,648.81 690.00,649.81 C690.00,650.80 689.30,652.49 688.45,653.56 C686.96,655.42 686.93,655.40 687.65,653.00 ZM 706.00 653.61 C706.00,651.59 708.91,645.20 708.96,647.12 C709.03,650.16 707.75,655.00 706.88,655.00 C706.39,655.00 706.00,654.38 706.00,653.61 ZM 735.13 651.94 C734.40,650.29 734.06,648.28 734.37,647.47 C735.01,645.80 739.00,645.44 739.00,647.06 C739.00,647.64 738.55,647.84 738.00,647.50 C735.89,646.19 735.05,648.14 736.66,650.60 C737.65,652.12 737.94,653.46 737.38,654.02 C736.82,654.58 735.94,653.76 735.13,651.94 ZM 722.50 649.00 C722.50,645.86 722.78,645.56 724.62,646.77 C725.35,647.24 725.45,648.31 724.91,649.75 C723.72,652.92 722.50,652.54 722.50,649.00 ZM 454.00 647.50 C454.00,646.67 454.45,646.00 455.00,646.00 C455.55,646.00 456.00,646.67 456.00,647.50 C456.00,648.33 455.55,649.00 455.00,649.00 C454.45,649.00 454.00,648.33 454.00,647.50 ZM 608.58 648.13 C608.15,647.44 608.07,646.60 608.40,646.27 C609.29,645.37 610.27,646.69 609.79,648.14 C609.45,649.15 609.21,649.15 608.58,648.13 ZM 692.15 648.05 C692.37,647.39 692.88,646.88 693.28,646.92 C694.47,647.05 694.24,648.42 692.95,648.85 C692.29,649.07 691.93,648.71 692.15,648.05 ZM 476.50 643.00 C476.16,642.45 476.36,642.00 476.94,642.00 C477.52,642.00 478.00,642.45 478.00,643.00 C478.00,643.55 477.80,644.00 477.56,644.00 C477.32,644.00 476.84,643.55 476.50,643.00 ZM 526.50 643.00 C526.16,642.45 526.36,642.00 526.94,642.00 C527.52,642.00 528.00,642.45 528.00,643.00 C528.00,643.55 527.80,644.00 527.56,644.00 C527.32,644.00 526.84,643.55 526.50,643.00 ZM 222.81 633.50 C212.92,630.84 207.51,625.28 204.47,614.64 C203.55,611.42 203.05,607.48 203.37,605.89 L 203.95 603.00 L 197.73 602.98 C184.90,602.93 175.53,594.81 172.53,581.12 C171.53,576.59 173.63,568.10 176.99,563.01 C179.87,558.66 179.90,558.52 178.09,556.53 C173.18,551.15 171.46,544.26 173.02,536.29 C175.37,524.38 184.80,516.27 197.49,515.25 L 203.52 514.76 L 203.61 509.13 C203.81,495.19 214.65,484.75 229.09,484.58 C234.58,484.51 236.67,485.01 241.65,487.58 L 247.62 490.66 L 253.41 487.62 C270.64,478.60 291.44,490.07 291.48,508.62 L 291.50 514.76 L 298.15 515.24 C305.09,515.74 309.76,517.82 315.34,522.91 C320.36,527.48 322.38,532.65 322.44,541.09 C322.49,547.92 322.19,549.18 319.32,553.79 L 316.14 558.91 L 319.32 564.70 C322.05,569.68 322.49,571.49 322.47,577.50 C322.40,592.45 312.03,603.10 297.45,603.19 L 291.09 603.22 L 291.68 606.16 C292.01,607.78 291.46,612.09 290.47,615.74 C288.33,623.67 283.01,629.68 275.69,632.48 C268.58,635.20 257.40,634.24 251.94,630.46 C248.55,628.11 247.55,627.82 246.17,628.83 C239.64,633.60 230.19,635.49 222.81,633.50 ZM 239.50 630.14 C241.70,629.14 244.12,627.57 244.87,626.66 C245.63,625.75 246.81,625.00 247.50,625.00 C248.19,625.00 249.37,625.75 250.13,626.66 C254.40,631.82 268.66,633.70 276.51,630.14 C286.50,625.60 292.29,611.75 288.42,601.66 C288.08,600.77 289.91,600.56 295.44,600.84 C303.87,601.26 309.55,599.27 314.15,594.25 C317.43,590.67 321.00,582.05 321.00,577.69 C321.00,573.15 318.57,566.43 315.43,562.32 L 312.90 559.00 L 315.83 555.25 C325.04,543.44 321.21,526.95 307.57,519.69 C304.38,518.00 301.86,517.54 295.93,517.60 L 288.37 517.67 L 289.36 513.93 C292.11,503.64 284.21,490.88 273.07,487.60 C270.08,486.72 266.68,486.00 265.50,486.00 C261.42,486.00 253.49,488.96 250.77,491.50 L 248.04 494.04 L 244.00 491.12 C230.67,481.46 211.88,487.17 207.01,502.36 C206.33,504.48 205.96,508.78 206.19,511.93 L 206.60 517.64 L 199.05 517.61 C191.07,517.58 189.08,518.26 182.71,523.26 C177.23,527.55 174.72,533.11 174.67,541.00 C174.63,547.98 176.18,552.09 180.46,556.37 C182.63,558.54 182.74,558.97 181.38,560.10 C180.54,560.80 178.71,563.61 177.32,566.35 C171.99,576.87 175.10,590.54 184.27,596.84 C188.81,599.97 196.85,602.43 199.87,601.62 C206.70,599.79 207.19,599.83 206.46,602.14 C205.42,605.39 205.75,612.44 207.15,617.12 C208.67,622.17 215.32,629.19 220.00,630.68 C225.58,632.46 234.98,632.19 239.50,630.14 ZM 358.70 630.37 C358.32,629.98 358.00,621.84 358.00,612.28 C358.00,586.43 358.36,586.00 379.97,586.00 C402.15,586.01 403.00,587.00 403.00,612.78 C403.00,621.06 402.73,628.55 402.39,629.42 C402.06,630.29 400.93,631.00 399.89,631.00 C397.88,631.00 397.94,631.34 397.65,619.00 L 397.50 612.50 L 380.29 612.23 L 363.08 611.95 L 362.79 621.22 C362.56,628.63 362.19,630.54 360.95,630.77 C360.10,630.94 359.09,630.75 358.70,630.37 ZM 396.10 607.36 C397.32,607.05 397.71,605.64 397.75,601.38 C397.83,592.51 396.88,592.00 380.33,592.00 C363.75,592.00 363.00,592.39 363.00,600.99 C363.00,604.11 363.29,606.96 363.65,607.31 C364.33,607.99 393.37,608.04 396.10,607.36 ZM 412.38 629.57 C407.99,627.65 407.00,623.84 407.00,608.87 C407.00,594.46 408.39,589.05 412.60,587.14 C414.16,586.43 421.62,586.00 432.44,586.00 C447.54,586.00 449.87,586.21 450.41,587.63 C451.87,591.43 449.48,592.00 431.95,592.00 C418.00,592.00 414.88,592.27 413.57,593.57 C412.30,594.84 412.00,597.68 412.00,608.35 C412.00,626.78 411.23,626.00 429.53,626.00 C443.41,626.00 444.01,625.92 445.33,623.75 C447.52,620.15 447.38,614.38 445.03,612.03 C443.31,610.31 441.71,610.00 434.47,610.00 C427.57,610.00 425.82,609.69 425.32,608.40 C424.35,605.87 426.89,605.03 435.60,605.02 C442.37,605.00 444.26,605.37 447.04,607.25 C453.21,611.41 453.79,623.11 448.08,628.22 C444.97,631.00 444.96,631.00 430.23,630.96 C420.11,630.93 414.53,630.50 412.38,629.57 ZM 460.70 629.42 C459.17,628.58 457.48,626.76 456.95,625.38 C455.53,621.63 455.81,613.88 457.50,610.65 C458.81,608.14 458.81,607.56 457.49,605.68 C454.09,600.83 456.68,588.83 461.52,586.99 C462.95,586.45 471.99,586.00 481.60,586.00 C496.26,586.00 499.16,586.24 499.64,587.51 C499.96,588.34 499.67,589.69 498.99,590.51 C497.99,591.72 494.60,592.00 480.95,592.00 C462.03,592.00 460.99,592.35 461.02,598.82 C461.04,605.47 460.98,605.45 481.21,606.00 C498.67,606.48 499.50,606.59 499.50,608.50 C499.50,610.41 498.67,610.52 481.21,611.00 C460.86,611.56 461.03,611.49 461.03,618.50 C461.03,625.51 460.86,625.44 481.21,626.00 C498.67,626.48 499.50,626.59 499.50,628.50 C499.50,630.42 498.76,630.51 481.50,630.72 C466.93,630.90 462.97,630.65 460.70,629.42 ZM 505.70 630.37 C505.32,629.98 505.00,621.62 505.00,611.78 C505.00,592.09 505.67,589.21 510.71,587.12 C514.62,585.50 520.24,585.44 523.96,586.98 C529.16,589.14 530.00,592.12 530.00,608.39 C530.00,622.24 530.10,622.96 532.22,624.44 C535.38,626.66 540.59,626.41 543.06,623.94 C544.98,622.02 545.11,620.79 544.99,605.69 C544.83,584.08 544.63,585.81 547.25,586.18 C549.48,586.50 549.50,586.68 549.75,604.50 C550.02,624.62 549.61,626.39 543.99,629.31 C538.57,632.11 531.41,631.14 527.81,627.11 C525.01,623.97 525.00,623.94 525.00,609.56 C525.00,597.79 524.71,594.85 523.43,593.57 C520.90,591.04 517.11,590.58 513.42,592.34 L 510.05 593.95 L 509.77 612.21 C509.54,627.76 509.27,630.52 507.95,630.77 C507.10,630.94 506.09,630.75 505.70,630.37 ZM 557.42 627.62 L 554.00 624.20 L 554.00 609.35 C554.01,596.41 554.26,594.09 555.95,591.31 C559.05,586.22 560.41,585.93 579.23,586.23 L 596.50 586.50 L 596.50 589.00 L 596.50 591.50 L 578.83 592.00 C569.11,592.28 560.79,592.87 560.33,593.33 C558.86,594.80 558.79,620.20 560.25,623.00 C561.55,625.49 561.63,625.50 579.03,626.00 C595.67,626.48 596.50,626.60 596.50,628.50 C596.50,630.41 595.74,630.51 578.67,630.77 L 560.85 631.05 L 557.42 627.62 ZM 601.39 629.57 C600.28,626.68 602.13,626.00 611.06,626.00 L 620.00 626.00 L 620.00 609.00 L 620.00 592.00 L 611.62 592.00 C602.90,592.00 600.10,590.78 601.36,587.51 C601.85,586.23 605.04,586.00 622.27,586.00 C643.60,586.00 645.90,586.44 643.92,590.15 C643.07,591.74 641.66,592.00 633.94,592.00 L 624.95 592.00 L 625.23 608.75 L 625.50 625.50 L 634.50 626.00 C642.67,626.45 643.50,626.69 643.50,628.50 C643.50,630.43 642.74,630.51 622.73,630.77 C605.18,631.00 601.86,630.81 601.39,629.57 ZM 654.36 630.01 C650.61,628.50 649.00,625.02 649.00,618.47 C649.00,614.86 649.56,611.61 650.39,610.48 C651.58,608.86 651.56,608.26 650.27,606.29 C649.18,604.63 648.88,602.16 649.19,597.36 C649.55,591.64 649.99,590.41 652.36,588.37 C655.04,586.06 655.61,586.00 673.47,586.00 C692.61,586.00 693.87,586.29 691.83,590.25 C691.03,591.81 689.10,592.00 673.66,592.00 C661.57,592.00 656.04,592.36 655.20,593.20 C654.54,593.86 654.00,596.47 654.00,599.00 C654.00,601.53 654.54,604.14 655.20,604.80 C656.04,605.64 661.67,606.00 674.09,606.00 C688.20,606.00 691.89,606.28 692.31,607.38 C693.50,610.46 690.69,611.00 673.50,611.00 C661.53,611.00 656.04,611.36 655.20,612.20 C654.54,612.86 654.00,615.70 654.00,618.50 C654.00,621.30 654.54,624.14 655.20,624.80 C656.04,625.64 661.68,626.00 674.14,626.00 C692.02,626.00 694.50,626.49 691.96,629.54 C690.99,630.72 687.46,630.99 673.63,630.94 C664.21,630.90 655.54,630.48 654.36,630.01 ZM 698.38 629.55 C697.16,626.38 699.11,626.00 716.49,626.00 C736.34,626.00 737.00,625.76 737.00,618.58 C737.00,611.52 735.75,611.00 718.81,611.00 C705.66,611.00 704.02,610.80 701.66,608.95 C696.07,604.55 696.14,592.40 701.78,587.96 C704.03,586.19 705.89,586.00 721.43,586.00 C739.49,586.00 741.86,586.53 739.92,590.15 C739.02,591.84 737.44,592.00 722.09,592.00 C709.80,592.00 704.98,592.34 704.27,593.25 C702.41,595.62 702.11,599.33 703.50,602.66 L 704.90 606.00 L 719.50 606.00 C735.49,606.00 738.69,606.82 740.81,611.47 C742.43,615.04 742.31,622.50 740.58,625.85 C738.22,630.41 735.44,631.00 716.42,631.00 C702.06,631.00 698.84,630.74 698.38,629.55 ZM 549.56 576.07 C548.10,574.46 547.96,570.23 548.22,536.22 L 548.50 498.17 L 551.50 493.91 C553.15,491.57 556.48,488.61 558.91,487.33 C563.30,485.01 563.48,485.00 601.05,485.00 C635.11,485.00 638.85,485.16 639.42,486.64 C639.76,487.54 639.78,489.12 639.46,490.14 C638.89,491.91 637.08,492.00 603.18,492.02 C555.09,492.05 556.00,491.62 556.00,514.45 L 556.00 527.00 L 596.80 527.00 C627.20,527.00 637.91,527.31 638.80,528.20 C640.53,529.93 640.28,532.44 638.17,534.35 C636.53,535.83 632.15,536.00 596.17,536.00 L 556.00 536.00 L 555.98 555.25 C555.98,565.84 555.64,574.98 555.23,575.57 C553.81,577.65 551.20,577.88 549.56,576.07 ZM 366.48 575.61 C352.82,569.66 349.49,541.98 361.00,530.12 C366.64,524.30 368.88,524.00 405.98,524.00 L 439.22 524.00 L 438.81 513.25 C438.37,501.45 436.95,497.32 432.28,494.26 C429.88,492.69 425.74,492.45 393.55,492.00 L 357.50 491.50 L 357.50 488.50 L 357.50 485.50 L 395.66 485.50 L 433.82 485.50 L 437.66 488.55 C439.77,490.23 442.62,493.83 444.00,496.55 C446.46,501.41 446.51,501.97 446.81,528.65 C447.15,558.94 446.41,564.19 440.90,570.46 C435.26,576.89 434.53,577.00 400.35,576.96 C377.12,576.93 368.75,576.60 366.48,575.61 ZM 431.00 568.25 C436.85,565.32 438.42,560.72 438.82,545.25 L 439.15 532.00 L 405.21 532.00 C371.89,532.00 371.22,532.04 368.51,534.17 C364.55,537.28 362.05,543.48 362.02,550.23 C361.99,559.39 366.37,568.33 371.37,569.31 C372.54,569.54 385.65,569.79 400.50,569.86 C424.38,569.98 427.90,569.79 431.00,568.25 ZM 467.21 575.87 C461.89,574.34 456.39,568.07 455.11,562.06 C453.71,555.53 453.59,490.20 454.98,486.57 C455.95,484.00 458.34,483.29 460.80,484.85 C461.82,485.50 462.08,493.18 462.03,521.40 C461.95,560.19 462.34,563.68 467.08,567.06 C469.65,568.89 471.74,569.00 503.82,569.00 C522.53,569.00 538.56,569.28 539.45,569.62 C542.19,570.67 543.21,573.65 541.43,575.43 C540.06,576.80 535.43,576.99 505.18,576.91 C486.11,576.86 469.02,576.39 467.21,575.87 ZM 657.50 575.42 C651.24,572.16 648.25,567.66 646.01,558.14 C643.83,548.87 646.44,536.67 651.90,530.62 C657.67,524.24 658.99,524.05 696.34,524.02 L 730.17 524.00 L 729.84 512.57 C729.46,499.75 728.31,497.00 721.93,493.75 C718.86,492.19 714.89,492.00 684.37,492.00 C647.83,492.00 646.95,491.88 648.48,487.05 C649.12,485.03 649.72,485.00 686.32,485.01 C723.09,485.01 723.54,485.04 727.17,487.26 C731.76,490.06 734.62,493.66 736.52,499.06 C738.47,504.59 738.65,555.30 736.73,561.51 C734.82,567.72 731.47,572.37 727.16,574.79 C723.33,576.94 722.38,577.00 691.86,576.99 C665.38,576.99 660.03,576.74 657.50,575.42 ZM 724.04 567.50 C728.68,563.36 729.95,558.49 729.98,544.75 L 730.00 532.00 L 696.43 532.00 C675.57,532.00 662.15,532.39 660.97,533.02 C659.92,533.58 657.81,536.17 656.29,538.77 C654.02,542.63 653.51,544.70 653.50,550.00 C653.50,558.29 656.16,565.25 660.38,568.00 C663.36,569.94 664.80,570.02 692.65,569.76 C720.17,569.51 721.92,569.39 724.04,567.50 ZM 221.50 625.42 C216.99,623.07 214.91,620.92 212.88,616.50 C208.19,606.28 212.46,596.71 229.84,578.49 C242.43,565.28 241.50,564.39 227.93,576.66 C223.77,580.42 218.21,585.43 215.58,587.78 C212.96,590.13 209.07,592.94 206.94,594.03 C201.78,596.66 193.79,596.65 189.51,594.00 C182.25,589.52 178.38,579.45 180.93,571.71 C181.57,569.77 184.36,566.07 187.13,563.48 C189.90,560.88 191.79,558.46 191.33,558.08 C190.87,557.70 188.76,556.12 186.64,554.56 C181.61,550.87 179.61,546.05 180.31,539.29 C181.36,529.13 188.02,523.00 198.00,523.00 C206.07,523.00 212.00,526.37 224.59,538.08 C230.47,543.56 235.52,547.81 235.81,547.53 C236.09,547.24 233.66,544.17 230.41,540.70 C227.16,537.24 223.82,533.52 223.00,532.45 C222.17,531.38 219.86,528.47 217.85,526.00 C208.86,514.90 208.67,503.89 217.34,496.28 C225.55,489.07 236.57,490.02 243.70,498.55 C245.75,501.00 247.72,503.00 248.08,503.00 C248.44,503.00 249.88,501.27 251.28,499.16 C254.45,494.36 259.29,492.00 265.94,492.00 C276.75,492.00 284.00,499.33 284.00,510.24 C284.00,514.90 283.45,516.61 280.61,520.84 C276.70,526.65 270.89,533.69 262.83,542.38 C259.72,545.75 257.34,548.67 257.56,548.89 C258.10,549.44 265.14,543.49 273.87,535.11 C283.73,525.64 289.90,522.63 298.38,523.17 C309.83,523.90 315.57,530.75 314.80,542.75 C314.42,548.81 314.12,549.50 310.42,552.94 C308.24,554.98 305.57,557.17 304.48,557.82 C302.51,558.99 302.51,559.01 304.50,560.16 C308.64,562.55 313.92,569.04 314.58,572.56 C316.92,585.04 309.05,595.99 297.72,596.00 C289.33,596.00 286.21,593.90 261.50,571.59 C258.75,569.11 256.14,567.06 255.70,567.04 C254.17,566.96 256.60,569.99 265.07,578.72 C269.77,583.55 275.82,590.62 278.52,594.43 C282.89,600.59 283.47,602.02 283.77,607.43 C284.20,614.84 282.22,619.02 276.07,623.75 C272.44,626.54 271.04,627.00 266.17,627.00 C259.19,626.99 255.22,624.78 250.73,618.42 C247.95,614.47 247.37,614.07 246.50,615.54 C243.21,621.13 241.12,623.50 238.02,625.15 C233.72,627.43 225.61,627.57 221.50,625.42 Z" fill="rgba(0,0,0,1)"/>
</g>
</svg>